<svg width="72" height="41" viewBox="0 0 72 41" fill="none" xmlns="http://www.w3.org/2000/svg">
<g clip-path="url(#clip0_91_7)">
<path d="M-52 62C-50.5346 69.967 -49.2542 77.9624 -47.7889 85.9293C-43.1937 92.6016 -38.4419 99.1602 -33.8467 105.832C-27.1744 110.428 -20.6159 115.179 -13.9436 119.775C-5.9766 121.24 2.01881 122.52 9.98577 123.986C17.9527 122.52 25.9481 121.24 33.9151 119.775C40.5874 115.179 47.1459 110.428 53.8183 105.832C58.4135 99.1602 63.1652 92.6016 67.7604 85.9293C69.2258 77.9624 70.5062 69.967 71.9715 62C70.5062 54.033 69.2258 46.0376 67.7604 38.0707C63.1652 31.3983 58.4135 24.8398 53.8183 18.1675C47.1459 13.5723 40.5874 8.82056 33.9151 4.22533C25.9624 2.74575 17.967 1.46535 10 0C2.03304 1.46535 -5.96237 2.74575 -13.9293 4.21111C-20.6017 8.80633 -27.1602 13.5581 -33.8325 18.1533C-38.4277 24.8256 -43.1794 31.3841 -47.7747 38.0564C-49.2542 46.0234 -50.5346 54.033 -52 62ZM-41.9417 83.5108C-43.2506 76.3547 -44.4172 69.156 -45.7118 62C-44.4172 54.8297 -43.2506 47.6452 -41.9417 40.4892C-37.8017 34.4998 -33.548 28.5957 -29.3938 22.6062C-23.4043 18.4663 -17.5002 14.1983 -11.5108 10.0583C-4.35476 8.74943 2.84396 7.58284 10 6.28821C17.1703 7.58284 24.3547 8.74943 31.5108 10.0583C37.5002 14.1983 43.4043 18.452 49.3937 22.6062C53.5337 28.5957 57.8017 34.4998 61.9417 40.4892C63.2506 47.6452 64.4172 54.844 65.7118 62C64.4029 69.156 63.2363 76.3547 61.9275 83.5108C57.7875 89.5002 53.5337 95.4043 49.3795 101.394C43.3901 105.534 37.486 109.802 31.4966 113.942C24.3405 115.251 17.1418 116.417 9.98577 117.712C2.81551 116.417 -4.36898 115.251 -11.525 113.942C-17.5145 109.802 -23.4185 105.548 -29.408 101.394C-33.5337 95.4043 -37.8017 89.5002 -41.9417 83.5108Z" fill="white" fill-opacity="0.05"/>
<path d="M-36.7773 62C-35.6961 68.0179 -34.7002 74.05 -33.619 80.0679C-30.1192 85.0899 -26.5626 90.055 -23.077 95.0771C-18.055 98.5626 -13.0899 102.133 -8.06785 105.619C-2.04995 106.7 3.98217 107.682 10.0001 108.777C16.018 107.696 22.0501 106.7 28.068 105.619C33.09 102.119 38.0551 98.5626 43.0772 95.0771C46.5627 90.055 50.1336 85.0899 53.6191 80.0679C54.7004 74.05 55.682 68.0179 56.7775 62C55.6963 55.9821 54.7004 49.9499 53.6191 43.9321C50.1194 38.91 46.5627 33.9449 43.0772 28.9229C38.0551 25.4373 33.09 21.8664 28.068 18.3809C22.0501 17.2997 16.018 16.318 10.0001 15.2226C3.98217 16.3038 -2.04995 17.2997 -8.06785 18.3809C-13.0899 21.8807 -18.055 25.4373 -23.077 28.9229C-26.5626 33.9449 -30.1335 38.91 -33.619 43.9321C-34.7002 49.9499 -35.6819 55.9821 -36.7773 62ZM-4.04169 67.8045C-4.34046 65.8696 -4.62499 63.9348 -4.8953 61.9857C-4.62499 60.0509 -4.34046 58.1018 -4.04169 56.167C-2.88933 54.5879 -1.72274 53.0087 -0.541927 51.4437C1.02301 50.2629 2.58795 49.0963 4.18134 47.944C6.11618 47.6452 8.05101 47.3607 10.0001 47.0904C11.9349 47.3607 13.884 47.6452 15.8188 47.944C17.3979 49.0963 18.9771 50.2629 20.5421 51.4437C21.7229 53.0087 22.8895 54.5736 24.0418 56.167C24.3406 58.1018 24.6251 60.0367 24.8954 61.9857C24.6251 63.9206 24.3406 65.8696 24.0418 67.8045C22.8895 69.3836 21.7229 70.9628 20.5421 72.5277C18.9771 73.7085 17.4122 74.8751 15.8188 76.0275C13.884 76.3263 11.9491 76.6108 10.0001 76.8811C8.06524 76.6108 6.11618 76.3263 4.18134 76.0275C2.60218 74.8751 1.02301 73.7085 -0.541927 72.5277C-1.70852 70.9628 -2.87511 69.3836 -4.04169 67.8045ZM-18.4676 63.1808C-18.496 62.9816 -18.4818 62.9958 -18.4533 63.2377C-18.4107 63.5364 -18.4107 63.508 -18.4676 63.1523C-18.4676 63.1666 -18.4676 63.1666 -18.4676 63.1808ZM-9.29135 82.9559C-9.44784 82.8421 -9.43361 82.8421 -9.23444 82.9986C-8.99259 83.1835 -9.02104 83.1693 -9.30557 82.9417L-9.29135 82.9559ZM11.1809 90.4534C10.9817 90.4818 10.9959 90.4676 11.2378 90.4391C11.5365 90.3965 11.5081 90.3965 11.1524 90.4534C11.1667 90.4534 11.1667 90.4534 11.1809 90.4534ZM30.956 81.2914C30.8422 81.4479 30.8422 81.4336 30.9987 81.2345C31.1836 80.9926 31.1694 81.0211 30.9418 81.3056L30.956 81.2914ZM38.4535 60.8191C38.4819 61.0183 38.4819 61.0041 38.4392 60.7622C38.3966 60.4635 38.3966 60.4919 38.4535 60.8476C38.4535 60.8334 38.4535 60.8191 38.4535 60.8191ZM29.2915 41.044C29.448 41.1578 29.4337 41.1578 29.2346 41.0013C28.9927 40.8164 29.0212 40.8306 29.3057 41.0583C29.3057 41.044 29.2915 41.044 29.2915 41.044ZM8.81925 33.5323C9.01842 33.5039 9.0042 33.5181 8.74812 33.5466C8.44936 33.5892 8.47781 33.5892 8.83347 33.5323H8.81925ZM-10.9559 42.7086C-10.8421 42.5521 -10.8421 42.5663 -10.9986 42.7655C-11.1835 43.0073 -11.1693 42.9789 -10.9416 42.6943C-10.9559 42.6943 -10.9559 42.7086 -10.9559 42.7086ZM-18.4676 60.8476C-18.4249 60.4919 -18.4107 60.4493 -18.4533 60.7622C-18.4818 61.0041 -18.4818 61.0183 -18.4676 60.8191C-18.4676 60.8191 -18.4676 60.8334 -18.4676 60.8476ZM-10.9416 81.3056C-11.1693 81.0211 -11.1835 80.9926 -10.9986 81.2345C-10.8421 81.4336 -10.8421 81.4479 -10.9559 81.2914C-10.9559 81.2914 -10.9559 81.3056 -10.9416 81.3056ZM8.8477 90.4534C8.49203 90.4107 8.44935 90.3965 8.76234 90.4391C9.00419 90.4676 9.01842 90.4676 8.83347 90.4534C8.81924 90.4534 8.83348 90.4534 8.8477 90.4534ZM29.3057 82.9417C29.0212 83.1693 28.9927 83.1835 29.2346 82.9986C29.4337 82.8421 29.448 82.8421 29.2915 82.9559L29.3057 82.9417ZM38.4535 63.1523C38.4108 63.508 38.3966 63.5507 38.4392 63.2377C38.4677 62.9958 38.4677 62.9816 38.4535 63.1808C38.4535 63.1666 38.4535 63.1666 38.4535 63.1523ZM30.9418 42.6943C31.1694 42.9789 31.1836 43.0073 30.9987 42.7655C30.8422 42.5663 30.8422 42.5521 30.956 42.7086L30.9418 42.6943ZM11.1524 33.5323C11.5081 33.575 11.5508 33.5892 11.2378 33.5466C10.9959 33.5181 10.9817 33.5181 11.1809 33.5323C11.1667 33.5323 11.1667 33.5323 11.1524 33.5323ZM-9.30557 41.0583C-9.02104 40.8306 -8.99259 40.8164 -9.23444 41.0013C-9.43361 41.1578 -9.44784 41.1578 -9.29135 41.044C-9.29135 41.044 -9.30557 41.044 -9.30557 41.0583ZM-18.3253 62C-18.3964 62.1849 -18.4391 62.3841 -18.4676 62.5975C-18.5103 62.8109 -18.496 63.0243 -18.4533 63.2377C-18.4533 63.4084 -18.4107 63.5649 -18.3395 63.7214C-18.1688 64.0913 -18.055 64.3758 -17.7562 64.6604C-17.0876 65.3148 -16.2198 65.3717 -15.3377 65.3006C-13.1326 65.0872 -11.0555 64.2905 -8.99259 63.5507C-8.75073 65.2863 -8.49465 67.022 -8.23857 68.7577C-13.5451 69.5686 -21.5548 70.2372 -22.323 63.6787C-22.3941 63.0812 -22.3941 62.5264 -22.323 62.0142C-22.3941 61.502 -22.3941 60.9472 -22.323 60.3497C-21.5548 53.7912 -13.5451 54.4598 -8.23857 55.2707C-8.50888 57.0064 -8.75073 58.742 -8.99259 60.4777C-11.0697 59.7379 -13.1326 58.9412 -15.3377 58.7278C-16.2198 58.6425 -17.0876 58.7136 -17.7562 59.368C-18.055 59.6526 -18.1688 59.9371 -18.3395 60.307C-18.4107 60.4635 -18.4533 60.62 -18.4533 60.7907C-18.496 61.0041 -18.5103 61.2175 -18.4676 61.4309C-18.4391 61.6158 -18.3964 61.815 -18.3253 62ZM-10.0311 41.9688C-10.2161 42.0541 -10.3868 42.1537 -10.5575 42.296C-10.7425 42.4098 -10.8847 42.5663 -10.9986 42.7512C-11.1124 42.8793 -11.212 43.0073 -11.2546 43.1638C-11.3827 43.5479 -11.5107 43.8182 -11.5107 44.245C-11.4965 45.1698 -10.9274 45.8384 -10.2445 46.4075C-8.53733 47.8159 -6.50292 48.7122 -4.5254 49.6654C-5.57818 51.0596 -6.63095 52.4681 -7.6695 53.8765C-11.9944 50.704 -18.1261 45.5112 -14.0431 40.3185C-13.6732 39.849 -13.2748 39.4649 -12.8622 39.1519C-12.5493 38.7393 -12.1651 38.341 -11.6957 37.9711C-6.51714 33.8738 -1.32439 40.0197 1.86239 44.3446C0.453945 45.3832 -0.954498 46.4217 -2.34871 47.4887C-3.28768 45.497 -4.18396 43.4768 -5.60663 41.7696C-6.1757 41.0867 -6.84435 40.5176 -7.76909 40.5034C-8.18167 40.5034 -8.4662 40.6172 -8.85032 40.7595C-9.00681 40.8164 -9.14908 40.9018 -9.26289 41.0156C-9.44784 41.1294 -9.59011 41.2717 -9.71815 41.4566C-9.84619 41.6131 -9.94578 41.7838 -10.0311 41.9688ZM10.0001 33.6746C9.81512 33.6035 9.61594 33.5608 9.40254 33.5323C9.18914 33.4896 8.97574 33.5039 8.76234 33.5466C8.59162 33.5466 8.43513 33.5892 8.27863 33.6604C7.90874 33.8311 7.6242 33.9449 7.33967 34.2437C6.68524 34.9123 6.62833 35.7801 6.69947 36.6622C6.91287 38.8673 7.70957 40.9444 8.44936 43.0073C6.7137 43.2492 4.97804 43.5053 3.24238 43.7613C2.43146 38.4548 1.7628 30.4451 8.32132 29.6769C8.91884 29.6058 9.47367 29.6058 9.98584 29.6769C10.498 29.6058 11.0528 29.6058 11.6504 29.6769C18.2089 30.4451 17.5402 38.4548 16.7293 43.7613C14.9936 43.491 13.258 43.2492 11.5223 43.0073C12.2621 40.9302 13.0588 38.8673 13.2722 36.6622C13.3576 35.7801 13.2864 34.9123 12.632 34.2437C12.3475 33.9449 12.0629 33.8311 11.693 33.6604C11.5365 33.5892 11.3801 33.5466 11.2093 33.5466C10.9959 33.5039 10.7825 33.4896 10.5691 33.5323C10.3842 33.5608 10.185 33.6035 10.0001 33.6746ZM30.0313 41.9688C29.9459 41.7838 29.8463 41.6131 29.7041 41.4424C29.5902 41.2574 29.4337 41.1152 29.2488 41.0013C29.1208 40.8875 28.9927 40.7879 28.8362 40.7453C28.4521 40.6172 28.1818 40.4892 27.755 40.4892C26.8303 40.5034 26.1616 41.0725 25.5925 41.7554C24.1841 43.4626 23.2878 45.497 22.3346 47.4745C20.9404 46.4217 19.532 45.3689 18.1235 44.3304C21.2961 40.0055 26.4888 33.8738 31.6816 37.9568C32.151 38.3267 32.5352 38.7251 32.8482 39.1377C33.2607 39.4506 33.6591 39.8348 34.029 40.3042C38.1263 45.4828 31.9803 50.6755 27.6554 53.8623C26.6169 52.4538 25.5641 51.0454 24.5113 49.6512C26.503 48.7122 28.5232 47.8159 30.2304 46.3933C30.9133 45.8242 31.4824 45.1698 31.4966 44.2308C31.4966 43.8182 31.3828 43.5337 31.2405 43.1496C31.1836 42.9931 31.0983 42.8508 30.9845 42.737C30.8706 42.5521 30.7141 42.4098 30.5434 42.2818C30.3727 42.1537 30.2162 42.0541 30.0313 41.9688ZM38.3254 62C38.3966 61.815 38.4392 61.6158 38.4677 61.4024C38.5104 61.189 38.4962 60.9756 38.4535 60.7622C38.4535 60.5915 38.4108 60.435 38.3397 60.2785C38.1689 59.9086 38.0551 59.6241 37.7564 59.3396C37.0877 58.6851 36.2199 58.6282 35.3378 58.6994C33.1327 58.9128 31.0556 59.7095 28.9927 60.4493C28.7509 58.7136 28.4948 56.9779 28.2387 55.2423C33.5453 54.4314 41.5549 53.7627 42.3231 60.3212C42.3943 60.9187 42.3943 61.4736 42.3231 61.9857C42.3943 62.4979 42.3943 63.0527 42.3231 63.6503C41.5549 70.2088 33.5453 69.5401 28.2387 68.7292C28.509 66.9935 28.7509 65.2579 28.9927 63.5222C31.0698 64.262 33.1327 65.0587 35.3378 65.2721C36.2199 65.3575 37.0877 65.2863 37.7564 64.6319C38.0551 64.3474 38.1689 64.0628 38.3397 63.6929C38.4108 63.5364 38.4535 63.38 38.4535 63.2092C38.4962 62.9958 38.5104 62.7824 38.4677 62.569C38.4392 62.3841 38.3966 62.1849 38.3254 62ZM30.0313 82.0312C30.2162 81.9458 30.3869 81.8462 30.5577 81.704C30.7426 81.5901 30.8849 81.4336 30.9987 81.2487C31.1125 81.1207 31.2121 80.9926 31.2548 80.8361C31.3828 80.452 31.5108 80.1817 31.5108 79.7549C31.4966 78.8302 30.9276 78.1615 30.2447 77.5924C28.5375 76.184 26.503 75.2877 24.5255 74.3345C25.5783 72.9403 26.6311 71.5319 27.6696 70.1234C31.9946 73.296 38.1263 78.4887 34.0432 83.6815C33.6733 84.1509 33.275 84.5351 32.8624 84.8481C32.5494 85.2606 32.1653 85.659 31.6958 86.0289C26.5173 90.1262 21.3245 83.9802 18.1377 79.6553C19.5462 78.6168 20.9546 77.5782 22.3488 76.5112C23.2878 78.5029 24.1841 80.5231 25.6068 82.2303C26.1758 82.9132 26.8445 83.4823 27.7692 83.4965C28.1818 83.4965 28.4663 83.3827 28.8505 83.2404C29.0069 83.1835 29.1492 83.0982 29.263 82.9844C29.448 82.8705 29.5902 82.7141 29.7183 82.5433C29.8321 82.3726 29.9459 82.2161 30.0313 82.0312ZM10.0001 90.3253C10.185 90.3965 10.3842 90.4391 10.5976 90.4676C10.811 90.5103 11.0244 90.4961 11.2378 90.4534C11.4085 90.4534 11.565 90.4107 11.7215 90.3396C12.0914 90.1688 12.3759 90.055 12.6605 89.7563C13.3149 89.0876 13.3718 88.2198 13.3007 87.3377C13.0873 85.1326 12.2906 83.0555 11.5508 80.9926C13.2864 80.7508 15.0221 80.4947 16.7578 80.2386C17.5687 85.5452 18.2373 93.5548 11.6788 94.323C11.0813 94.3942 10.5265 94.3942 10.0143 94.323C9.50213 94.3942 8.94728 94.3942 8.34977 94.323C1.79125 93.5548 2.45991 85.5452 3.27083 80.2386C5.00649 80.5089 6.74215 80.7508 8.47781 80.9926C7.73801 83.0697 6.94132 85.1326 6.72792 87.3377C6.64256 88.2198 6.7137 89.0876 7.36812 89.7563C7.65266 90.055 7.93719 90.1688 8.30709 90.3396C8.46358 90.4107 8.62008 90.4534 8.79079 90.4534C9.0042 90.4961 9.2176 90.5103 9.431 90.4676C9.61594 90.4391 9.81512 90.3965 10.0001 90.3253ZM-10.0311 82.0312C-9.94578 82.2161 -9.84619 82.3868 -9.70392 82.5576C-9.59011 82.7425 -9.43362 82.8848 -9.24867 82.9986C-9.12063 83.1124 -8.99259 83.212 -8.83609 83.2547C-8.45197 83.3827 -8.18166 83.5107 -7.75486 83.5107C-6.83013 83.4965 -6.16147 82.9275 -5.59241 82.2446C-4.18396 80.5374 -3.28768 78.5029 -2.33449 76.5254C-0.940273 77.5782 0.46817 78.631 1.87661 79.6695C-1.29594 83.9945 -6.48869 90.1262 -11.6814 86.0431C-12.1509 85.6732 -12.535 85.2749 -12.848 84.8623C-13.2606 84.5493 -13.6589 84.1652 -14.0288 83.6957C-18.1261 78.5172 -11.9802 73.3244 -7.65528 70.1376C-6.61673 71.5461 -5.56395 72.9545 -4.51117 74.3487C-6.50291 75.2877 -8.52311 76.184 -10.2303 77.6067C-10.9132 78.1757 -11.4823 78.8444 -11.4965 79.7691C-11.4965 80.1817 -11.3827 80.4662 -11.2404 80.8504C-11.1835 81.0068 -11.0981 81.1491 -10.9843 81.2629C-10.8705 81.4479 -10.714 81.5901 -10.5433 81.7182C-10.3868 81.832 -10.2161 81.9458 -10.0311 82.0312ZM-27.5727 62C-27.6723 62.8536 -27.6438 63.7783 -27.4873 64.7884C-26.4772 70.9059 -21.1991 72.542 -15.6222 72.6131C-19.5203 76.6108 -22.0954 81.4906 -18.4818 86.541C-17.8843 87.3662 -17.2441 88.0348 -16.5754 88.5754C-16.049 89.2441 -15.3662 89.8843 -14.541 90.4818C-9.49052 94.0954 -4.61076 91.5204 -0.61306 87.6223C-0.541927 93.1991 1.09414 98.4772 7.21163 99.4873C8.22173 99.6581 9.14647 99.6723 10.0001 99.5727C10.8537 99.6723 11.7784 99.6438 12.7885 99.4873C18.906 98.4772 20.5421 93.1991 20.6132 87.6223C24.6109 91.5204 29.4907 94.0954 34.5411 90.4818C35.3663 89.8843 36.0349 89.2441 36.5755 88.5754C37.2442 88.0491 37.8844 87.3662 38.4819 86.541C42.0955 81.4906 39.5205 76.6108 35.6224 72.6131C41.1992 72.542 46.4773 70.9059 47.4874 64.7884C47.6582 63.7783 47.6724 62.8536 47.5728 62C47.6724 61.1464 47.6439 60.2216 47.4874 59.2115C46.4773 53.094 41.1992 51.458 35.6224 51.3868C39.5205 47.3891 42.0955 42.5094 38.4819 37.4589C37.8844 36.6337 37.2442 35.9651 36.5755 35.4245C36.0492 34.7558 35.3663 34.1156 34.5411 33.5181C29.4907 29.9045 24.6109 32.4796 20.6132 36.3777C20.5421 30.8008 18.906 25.5227 12.7885 24.5126C11.7784 24.3419 10.8537 24.3276 10.0001 24.4272C9.14647 24.3276 8.22173 24.3561 7.21163 24.5126C1.09414 25.5227 -0.541927 30.8008 -0.61306 36.3777C-4.61076 32.4796 -9.49052 29.9045 -14.541 33.5181C-15.3662 34.1156 -16.0348 34.7558 -16.5754 35.4245C-17.2441 35.9509 -17.8843 36.6337 -18.4818 37.4589C-22.0954 42.5094 -19.5203 47.3891 -15.6222 51.3868C-21.1991 51.458 -26.4772 53.094 -27.4873 59.2115C-27.6438 60.2216 -27.6723 61.1464 -27.5727 62ZM-29.9628 78.5456C-30.9444 73.0399 -31.8549 67.5057 -32.8365 62C-31.8549 56.48 -30.9444 50.96 -29.9628 45.4543C-26.7617 40.8591 -23.5038 36.3065 -20.3028 31.7113C-15.7076 28.5103 -11.155 25.2524 -6.55982 22.0514C-1.05408 21.0697 4.4801 20.1592 9.98584 19.1776C15.5058 20.1592 21.0258 21.0697 26.5315 22.0514C31.1267 25.2524 35.6793 28.5103 40.2745 31.7113C43.4755 36.3065 46.7334 40.8591 49.9344 45.4543C50.9161 50.96 51.8266 56.4942 52.8082 62C51.8266 67.5057 50.9161 73.0399 49.9344 78.5456C46.7334 83.1408 43.4755 87.6934 40.2745 92.2886C35.6793 95.4896 31.1267 98.7476 26.5315 101.949C21.0258 102.93 15.4916 103.841 9.98584 104.822C4.46587 103.841 -1.05408 102.93 -6.55982 101.949C-11.155 98.7476 -15.7076 95.4896 -20.3028 92.2886C-23.4896 87.6934 -26.7617 83.1408 -29.9628 78.5456Z" fill="white" fill-opacity="0.05"/>
</g>
<defs>
<clipPath id="clip0_91_7">
<rect width="124" height="124" fill="white" transform="translate(-52)"/>
</clipPath>
</defs>
</svg>
