<svg width="80" height="142" viewBox="0 0 80 142" fill="none" xmlns="http://www.w3.org/2000/svg">
<g clip-path="url(#clip0_91_2)">
<path d="M0 71C1.67806 80.1235 3.14433 89.2795 4.8224 98.4029C10.0847 106.044 15.5262 113.554 20.7884 121.195C28.4293 126.458 35.9399 131.899 43.5808 137.161C52.7042 138.839 61.8603 140.306 70.9837 141.984C80.1072 140.306 89.2632 138.839 98.3866 137.161C106.028 131.899 113.538 126.458 121.179 121.195C126.441 113.554 131.883 106.044 137.145 98.4029C138.823 89.2795 140.289 80.1235 141.967 71C140.289 61.8765 138.823 52.7205 137.145 43.5971C131.883 35.9562 126.441 28.4456 121.179 20.8047C113.538 15.5424 106.028 10.101 98.3866 4.83869C89.2795 3.14433 80.1235 1.67806 71 0C61.8765 1.67806 52.7205 3.14433 43.5971 4.8224C35.9562 10.0847 28.4456 15.5262 20.8047 20.7884C15.5424 28.4293 10.101 35.9399 4.83869 43.5808C3.14433 52.7042 1.67806 61.8765 0 71ZM11.5184 95.6333C10.0195 87.4385 8.68357 79.1948 7.20101 71C8.68357 62.7889 10.0195 54.5615 11.5184 46.3667C16.2593 39.5078 21.1306 32.7467 25.8878 25.8878C32.7467 21.1469 39.5078 16.2593 46.3667 11.5184C54.5615 10.0195 62.8052 8.68357 71 7.20101C79.2111 8.68357 87.4385 10.0195 95.6333 11.5184C102.492 16.2593 109.253 21.1306 116.112 25.8878C120.853 32.7467 125.741 39.5078 130.482 46.3667C131.98 54.5615 133.316 62.8052 134.799 71C133.3 79.1948 131.964 87.4385 130.465 95.6333C125.724 102.492 120.853 109.253 116.096 116.112C109.237 120.853 102.476 125.741 95.617 130.482C87.4222 131.98 79.1785 133.316 70.9837 134.799C62.7726 133.316 54.5452 131.98 46.3504 130.482C39.4915 125.741 32.7304 120.869 25.8715 116.112C21.1469 109.253 16.2593 102.492 11.5184 95.6333Z" fill="white" fill-opacity="0.05"/>
<path d="M63.0659 70.9999C63.2125 72.0263 63.3592 73.069 63.5221 74.0954C64.1412 74.9263 64.7603 75.7735 65.3957 76.6044C66.2265 77.2234 67.0574 77.8588 67.9046 78.4779C68.931 78.6245 69.9737 78.7875 71.0001 78.9341C72.0265 78.7875 73.0691 78.6408 74.0955 78.4779C74.9264 77.8588 75.7736 77.2397 76.6045 76.6044C77.2236 75.7735 77.8589 74.9426 78.478 74.0954C78.6247 73.069 78.7876 72.0263 78.9342 70.9999C78.7876 69.9736 78.641 68.9309 78.478 67.9045C77.8589 67.0736 77.2399 66.2264 76.6045 65.3955C75.7736 64.7764 74.9427 64.1411 74.0955 63.522C73.0691 63.3753 72.0265 63.2124 71.0001 63.0658C69.9737 63.2124 68.931 63.3591 67.9046 63.522C67.0737 64.1411 66.2265 64.7602 65.3957 65.3955C64.7766 66.2264 64.1412 67.0573 63.5221 67.9045C63.3755 68.9309 63.2125 69.9573 63.0659 70.9999ZM69.6641 71.5539C69.6315 71.3747 69.6153 71.1792 69.5827 70.9999C69.6153 70.8207 69.6315 70.6252 69.6641 70.446C69.7782 70.2994 69.8922 70.1528 70.0063 69.9898C70.1529 69.8758 70.2995 69.7618 70.4624 69.664C70.6416 69.6314 70.8371 69.6151 71.0164 69.5825C71.1956 69.6151 71.3911 69.6314 71.5703 69.664C71.7169 69.778 71.8635 69.8921 72.0265 69.9898C72.1405 70.1365 72.2545 70.2831 72.3523 70.446C72.3849 70.6252 72.4012 70.8207 72.4337 70.9999C72.4012 71.1792 72.3849 71.3747 72.3523 71.5539C72.2382 71.7005 72.1242 71.8471 72.0265 72.01C71.8798 72.1241 71.7332 72.2381 71.5703 72.3522C71.3911 72.3848 71.1956 72.401 71.0164 72.4336C70.8371 72.401 70.6416 72.3848 70.4624 72.3522C70.3158 72.2381 70.1692 72.1241 70.0063 72.01C69.8759 71.8471 69.7782 71.7005 69.6641 71.5539Z" fill="white" fill-opacity="0.05"/>
<path d="M17.4321 71C18.6703 77.8914 19.8107 84.7992 21.0489 91.6906C25.0567 97.4417 29.1297 103.128 33.1212 108.879C38.8722 112.87 44.5581 116.959 50.3091 120.951C57.2006 122.189 64.1083 123.313 70.9998 124.568C77.8913 123.329 84.799 122.189 91.6905 120.951C97.4415 116.943 103.127 112.87 108.878 108.879C112.87 103.128 116.959 97.4417 120.951 91.6906C122.189 84.7992 123.313 77.8914 124.567 71C123.329 64.1085 122.189 57.2007 120.951 50.3093C116.943 44.5583 112.87 38.8724 108.878 33.1214C103.127 29.1298 97.4415 25.0406 91.6905 21.0491C84.799 19.8109 77.8913 18.6868 70.9998 17.4323C64.1083 18.6705 57.2006 19.8109 50.3091 21.0491C44.5581 25.0569 38.8722 29.1298 33.1212 33.1214C29.1297 38.8724 25.0404 44.5583 21.0489 50.3093C19.8107 57.2007 18.6866 64.1085 17.4321 71ZM54.9197 77.647C54.5776 75.4314 54.2518 73.2157 53.9422 70.9837C54.2518 68.768 54.5776 66.536 54.9197 64.3203C56.2394 62.5119 57.5753 60.7035 58.9275 58.9114C60.7196 57.5592 62.5117 56.2232 64.3364 54.9036C66.5521 54.5615 68.7678 54.2356 70.9998 53.9261C73.2155 54.2356 75.4475 54.5615 77.6632 54.9036C79.4716 56.2232 81.28 57.5592 83.0721 58.9114C84.4243 60.7035 85.7602 62.4956 87.0799 64.3203C87.422 66.536 87.7478 68.7517 88.0574 70.9837C87.7478 73.1994 87.422 75.4314 87.0799 77.647C85.7602 79.4554 84.4243 81.2638 83.0721 83.0559C81.28 84.4082 79.4879 85.7441 77.6632 87.0637C75.4475 87.4059 73.2318 87.7317 70.9998 88.0413C68.7841 87.7317 66.5521 87.4059 64.3364 87.0637C62.528 85.7441 60.7196 84.4082 58.9275 83.0559C57.5916 81.2638 56.2557 79.4554 54.9197 77.647ZM38.3998 72.3522C38.3672 72.1241 38.3835 72.1404 38.4161 72.4174C38.4649 72.7595 38.4649 72.7269 38.3998 72.3196C38.3998 72.3359 38.3998 72.3359 38.3998 72.3522ZM48.908 94.9979C48.7288 94.8676 48.7451 94.8676 48.9732 95.0468C49.2502 95.2586 49.2176 95.2423 48.8917 94.9816L48.908 94.9979ZM72.352 103.584C72.1239 103.616 72.1402 103.6 72.4172 103.567C72.7593 103.519 72.7267 103.519 72.3194 103.584C72.3357 103.584 72.3357 103.584 72.352 103.584ZM94.9977 93.0917C94.8674 93.271 94.8674 93.2547 95.0466 93.0266C95.2584 92.7496 95.2421 92.7822 94.9814 93.108L94.9977 93.0917ZM103.584 69.6477C103.616 69.8758 103.616 69.8595 103.567 69.5826C103.518 69.2404 103.518 69.273 103.584 69.6803C103.584 69.664 103.584 69.6477 103.584 69.6477ZM93.0916 47.002C93.2708 47.1324 93.2545 47.1324 93.0264 46.9532C92.7495 46.7414 92.782 46.7577 93.1079 47.0183C93.1079 47.002 93.0916 47.002 93.0916 47.002ZM69.6476 38.3999C69.8757 38.3673 69.8594 38.3836 69.5661 38.4162C69.224 38.4651 69.2566 38.4651 69.6639 38.3999H69.6476ZM47.0019 48.9082C47.1322 48.729 47.1322 48.7453 46.953 48.9733C46.7412 49.2503 46.7575 49.2177 47.0182 48.8919C47.0019 48.8919 47.0019 48.9082 47.0019 48.9082ZM38.3998 69.6803C38.4486 69.273 38.4649 69.2241 38.4161 69.5826C38.3835 69.8595 38.3835 69.8758 38.3998 69.6477C38.3998 69.6477 38.3998 69.664 38.3998 69.6803ZM47.0182 93.108C46.7575 92.7822 46.7412 92.7496 46.953 93.0266C47.1322 93.2547 47.1322 93.271 47.0019 93.0917C47.0019 93.0917 47.0019 93.108 47.0182 93.108ZM69.6802 103.584C69.2729 103.535 69.224 103.519 69.5824 103.567C69.8594 103.6 69.8757 103.6 69.6639 103.584C69.6476 103.584 69.6639 103.584 69.6802 103.584ZM93.1079 94.9816C92.782 95.2423 92.7495 95.2586 93.0264 95.0468C93.2545 94.8676 93.2708 94.8676 93.0916 94.9979L93.1079 94.9816ZM103.584 72.3196C103.535 72.7269 103.518 72.7758 103.567 72.4174C103.6 72.1404 103.6 72.1241 103.584 72.3522C103.584 72.3359 103.584 72.3359 103.584 72.3196ZM94.9814 48.8919C95.2421 49.2177 95.2584 49.2503 95.0466 48.9733C94.8674 48.7453 94.8674 48.729 94.9977 48.9082L94.9814 48.8919ZM72.3194 38.3999C72.7267 38.4488 72.7756 38.4651 72.4172 38.4162C72.1402 38.3836 72.1239 38.3836 72.352 38.3999C72.3357 38.3999 72.3357 38.3999 72.3194 38.3999ZM48.8917 47.0183C49.2176 46.7577 49.2502 46.7414 48.9732 46.9532C48.7451 47.1324 48.7288 47.1324 48.908 47.002C48.908 47.002 48.8917 47.002 48.8917 47.0183ZM38.5627 71C38.4812 71.2118 38.4324 71.4398 38.3998 71.6842C38.3509 71.9286 38.3672 72.173 38.4161 72.4174C38.4161 72.6129 38.4649 72.7921 38.5464 72.9713C38.7419 73.3949 38.8722 73.7207 39.2144 74.0465C39.9801 74.796 40.9739 74.8611 41.984 74.7797C44.5092 74.5353 46.8878 73.6229 49.2502 72.7758C49.5271 74.7634 49.8204 76.751 50.1136 78.7386C44.0368 79.6672 34.8644 80.433 33.9847 72.9224C33.9032 72.2381 33.9032 71.6028 33.9847 71.0163C33.9032 70.4297 33.9032 69.7944 33.9847 69.1101C34.8644 61.5995 44.0368 62.3653 50.1136 63.2939C49.8041 65.2815 49.5271 67.2691 49.2502 69.2567C46.8715 68.4095 44.5092 67.4972 41.984 67.2528C40.9739 67.1551 39.9801 67.2365 39.2144 67.986C38.8722 68.3118 38.7419 68.6376 38.5464 69.0612C38.4649 69.2404 38.4161 69.4196 38.4161 69.6152C38.3672 69.8595 38.3509 70.1039 38.3998 70.3483C38.4324 70.5601 38.4812 70.7882 38.5627 71ZM48.0609 48.061C47.8491 48.1588 47.6536 48.2728 47.4581 48.4357C47.2463 48.566 47.0833 48.7453 46.953 48.9571C46.8227 49.1037 46.7086 49.2503 46.6597 49.4295C46.5131 49.8694 46.3665 50.179 46.3665 50.6677C46.3828 51.7267 47.0345 52.4924 47.8165 53.1441C49.7715 54.757 52.1012 55.7834 54.3658 56.8749C53.1602 58.4715 51.9546 60.0844 50.7653 61.6973C45.8126 58.0642 38.7908 52.1177 43.4665 46.1711C43.8901 45.6335 44.3463 45.1936 44.8188 44.8352C45.1772 44.3627 45.6171 43.9066 46.1547 43.483C52.0849 38.7909 58.0315 45.829 61.6809 50.7817C60.068 51.9711 58.4551 53.1604 56.8585 54.3823C55.7832 52.1014 54.7568 49.7879 53.1276 47.8329C52.4759 47.0509 51.7102 46.3992 50.6513 46.3829C50.1788 46.3829 49.853 46.5133 49.4131 46.6762C49.2339 46.7414 49.0709 46.8391 48.9406 46.9694C48.7288 47.0998 48.5659 47.2627 48.4193 47.4745C48.2726 47.6537 48.1586 47.8492 48.0609 48.061ZM70.9998 38.5628C70.788 38.4814 70.5599 38.4325 70.3155 38.3999C70.0712 38.351 69.8268 38.3673 69.5824 38.4162C69.3869 38.4162 69.2077 38.4651 69.0285 38.5465C68.6049 38.7421 68.2791 38.8724 67.9532 39.2145C67.2038 39.9802 67.1386 40.974 67.2201 41.9841C67.4645 44.5094 68.3768 46.888 69.224 49.2503C67.2364 49.5273 65.2488 49.8205 63.2612 50.1138C62.3325 44.0369 61.5668 34.8646 69.0774 33.9848C69.7616 33.9034 70.397 33.9034 70.9835 33.9848C71.57 33.9034 72.2054 33.9034 72.8897 33.9848C80.4002 34.8646 79.6345 44.0369 78.7059 50.1138C76.7183 49.8042 74.7306 49.5273 72.743 49.2503C73.5902 46.8717 74.5026 44.5094 74.7469 41.9841C74.8447 40.974 74.7632 39.9802 74.0138 39.2145C73.688 38.8724 73.3621 38.7421 72.9385 38.5465C72.7593 38.4651 72.5801 38.4162 72.3846 38.4162C72.1402 38.3673 71.8959 38.351 71.6515 38.3999C71.4397 38.4325 71.2116 38.4814 70.9998 38.5628ZM93.9388 48.061C93.841 47.8492 93.727 47.6537 93.5641 47.4582C93.4337 47.2464 93.2545 47.0835 93.0427 46.9532C92.8961 46.8228 92.7495 46.7088 92.5702 46.6599C92.1304 46.5133 91.8208 46.3666 91.3321 46.3666C90.2731 46.3829 89.5074 47.0346 88.8557 47.8166C87.2428 49.7717 86.2164 52.1014 85.1249 54.366C83.5283 53.1604 81.9154 51.9548 80.3025 50.7655C83.9356 45.8127 89.8821 38.7909 95.8286 43.4667C96.3663 43.8903 96.8061 44.3465 97.1646 44.8189C97.637 45.1773 98.0932 45.6172 98.5168 46.1549C103.209 52.0851 96.1708 58.0316 91.218 61.681C90.0287 60.0681 88.8231 58.4552 87.6175 56.8586C89.8984 55.7834 92.2118 54.757 94.1668 53.1278C94.9489 52.4761 95.6005 51.7267 95.6168 50.6514C95.6168 50.1789 95.4865 49.8531 95.3236 49.4132C95.2584 49.234 95.1607 49.0711 95.0303 48.9408C94.9 48.729 94.7208 48.5661 94.5253 48.4194C94.3298 48.2728 94.1506 48.1588 93.9388 48.061ZM103.437 71C103.518 70.7882 103.567 70.5601 103.6 70.3157C103.649 70.0713 103.632 69.8269 103.584 69.5826C103.584 69.3871 103.535 69.2079 103.453 69.0286C103.258 68.6051 103.127 68.2792 102.785 67.9534C102.02 67.204 101.026 67.1388 100.016 67.2202C97.4904 67.4646 95.1118 68.377 92.7495 69.2241C92.4725 67.2365 92.1792 65.2489 91.886 63.2613C97.9629 62.3327 107.135 61.567 108.015 69.0775C108.096 69.7618 108.096 70.3972 108.015 70.9837C108.096 71.5702 108.096 72.2056 108.015 72.8898C107.135 80.4004 97.9629 79.6347 91.886 78.706C92.1955 76.7184 92.4725 74.7308 92.7495 72.7432C95.1281 73.5904 97.4904 74.5027 100.016 74.7471C101.026 74.8448 102.02 74.7634 102.785 74.014C103.127 73.6881 103.258 73.3623 103.453 72.9387C103.535 72.7595 103.584 72.5803 103.584 72.3848C103.632 72.1404 103.649 71.896 103.6 71.6516C103.567 71.4398 103.518 71.2118 103.437 71ZM93.9388 93.9389C94.1506 93.8412 94.3461 93.7271 94.5416 93.5642C94.7534 93.4339 94.9163 93.2547 95.0466 93.0429C95.1769 92.8962 95.291 92.7496 95.3399 92.5704C95.4865 92.1305 95.6331 91.821 95.6331 91.3322C95.6168 90.2732 94.9652 89.5075 94.1831 88.8559C92.2281 87.243 89.8984 86.2166 87.6338 85.125C88.8394 83.5284 90.045 81.9155 91.2343 80.3026C96.187 83.9357 103.209 89.8822 98.5331 95.8288C98.1095 96.3664 97.6533 96.8063 97.1808 97.1647C96.8224 97.6372 96.3826 98.0933 95.8449 98.5169C89.9147 103.209 83.9681 96.1709 80.3188 91.2182C81.9317 90.0289 83.5445 88.8396 85.1412 87.6177C86.2164 89.8985 87.2428 92.212 88.872 94.167C89.5237 94.949 90.2894 95.6007 91.3484 95.617C91.8208 95.617 92.1467 95.4866 92.5865 95.3237C92.7658 95.2586 92.9287 95.1608 93.059 95.0305C93.2708 94.9001 93.4337 94.7209 93.5803 94.5254C93.7107 94.3299 93.841 94.1507 93.9388 93.9389ZM70.9998 103.437C71.2116 103.519 71.4397 103.567 71.6841 103.6C71.9284 103.649 72.1728 103.633 72.4172 103.584C72.6127 103.584 72.7919 103.535 72.9711 103.453C73.3947 103.258 73.7206 103.128 74.0464 102.785C74.7958 102.02 74.861 101.026 74.7795 100.016C74.5351 97.4905 73.6228 95.1119 72.7756 92.7496C74.7632 92.4726 76.7508 92.1794 78.7384 91.8861C79.6671 97.963 80.4328 107.135 72.9222 108.015C72.238 108.097 71.6026 108.097 71.0161 108.015C70.4296 108.097 69.7942 108.097 69.1099 108.015C61.5994 107.135 62.3651 97.963 63.2938 91.8861C65.2814 92.1957 67.269 92.4726 69.2566 92.7496C68.4094 95.1282 67.4971 97.4905 67.2527 100.016C67.1549 101.026 67.2364 102.02 67.9858 102.785C68.3116 103.128 68.6375 103.258 69.0611 103.453C69.2403 103.535 69.4195 103.584 69.615 103.584C69.8594 103.633 70.1038 103.649 70.3481 103.6C70.5599 103.567 70.788 103.519 70.9998 103.437ZM48.0609 93.9389C48.1586 94.1507 48.2726 94.3462 48.4356 94.5417C48.5659 94.7535 48.7451 94.9164 48.9569 95.0468C49.1035 95.1771 49.2502 95.2911 49.4294 95.34C49.8692 95.4866 50.1788 95.6333 50.6676 95.6333C51.7265 95.617 52.4922 94.9653 53.1439 94.1833C54.7568 92.2283 55.7832 89.8985 56.8748 87.634C58.4714 88.8396 60.0843 90.0452 61.6971 91.2345C58.0641 96.1872 52.1175 103.209 46.171 98.5332C45.6334 98.1096 45.1935 97.6535 44.8351 97.181C44.3626 96.8226 43.9064 96.3827 43.4828 95.8451C38.7908 89.9148 45.8289 83.9683 50.7816 80.3189C51.9709 81.9318 53.1765 83.5447 54.3821 85.1413C52.1012 86.2166 49.7878 87.243 47.8328 88.8721C47.0508 89.5238 46.3991 90.2895 46.3828 91.3485C46.3828 91.821 46.5131 92.1468 46.676 92.5867C46.7412 92.7659 46.839 92.9288 46.9693 93.0592C47.0996 93.271 47.2788 93.4339 47.4743 93.5805C47.6536 93.7108 47.8491 93.8412 48.0609 93.9389ZM27.973 71C27.8589 71.9775 27.8915 73.0364 28.0707 74.1932C29.2274 81.1987 35.2717 83.0722 41.6581 83.1537C37.1942 87.7317 34.2453 93.3198 38.3835 99.1034C39.0677 100.048 39.8009 100.814 40.5666 101.433C41.1694 102.199 41.9514 102.932 42.8963 103.616C48.6799 107.754 54.2681 104.806 58.8461 100.342C58.9275 106.728 60.8011 112.772 67.8066 113.929C68.9633 114.125 70.0223 114.141 70.9998 114.027C71.9773 114.141 73.0363 114.108 74.193 113.929C81.1985 112.772 83.0721 106.728 83.1535 100.342C87.7316 104.806 93.3197 107.754 99.1033 103.616C100.048 102.932 100.814 102.199 101.433 101.433C102.199 100.83 102.932 100.048 103.616 99.1034C107.754 93.3198 104.805 87.7317 100.341 83.1537C106.728 83.0722 112.772 81.1987 113.929 74.1932C114.124 73.0364 114.141 71.9775 114.027 71C114.141 70.0224 114.108 68.9635 113.929 67.8068C112.772 60.8012 106.728 58.9277 100.341 58.8462C104.805 54.2682 107.754 48.6801 103.616 42.8965C102.932 41.9516 102.199 41.1858 101.433 40.5667C100.83 39.801 100.048 39.0679 99.1033 38.3836C93.3197 34.2455 87.7316 37.1943 83.1535 41.6583C83.0721 35.2719 81.1985 29.2276 74.193 28.0709C73.0363 27.8754 71.9773 27.8591 70.9998 27.9731C70.0223 27.8591 68.9633 27.8917 67.8066 28.0709C60.8011 29.2276 58.9275 35.2719 58.8461 41.6583C54.2681 37.1943 48.6799 34.2455 42.8963 38.3836C41.9514 39.0679 41.1857 39.801 40.5666 40.5667C39.8009 41.1695 39.0677 41.9516 38.3835 42.8965C34.2453 48.6801 37.1942 54.2682 41.6581 58.8462C35.2717 58.9277 29.2274 60.8012 28.0707 67.8068C27.8915 68.9635 27.8589 70.0224 27.973 71ZM25.2359 89.9474C24.1118 83.6425 23.0691 77.3049 21.945 71C23.0691 64.6787 24.1118 58.3575 25.2359 52.0525C28.9016 46.7902 32.6324 41.5768 36.2981 36.3146C41.5604 32.6489 46.7738 28.9181 52.0361 25.2524C58.341 24.1282 64.6786 23.0856 70.9835 21.9614C77.3048 23.0856 83.626 24.1282 89.931 25.2524C95.1932 28.9181 100.407 32.6489 105.669 36.3146C109.335 41.5768 113.065 46.7902 116.731 52.0525C117.855 58.3575 118.898 64.695 120.022 71C118.898 77.3049 117.855 83.6425 116.731 89.9474C113.065 95.2097 109.335 100.423 105.669 105.685C100.407 109.351 95.1932 113.082 89.931 116.748C83.626 117.872 77.2885 118.914 70.9835 120.038C64.6623 118.914 58.341 117.872 52.0361 116.748C46.7738 113.082 41.5604 109.351 36.2981 105.685C32.6487 100.423 28.9016 95.2097 25.2359 89.9474Z" fill="white" fill-opacity="0.05"/>
</g>
<defs>
<clipPath id="clip0_91_2">
<rect width="142" height="142" fill="white"/>
</clipPath>
</defs>
</svg>
